<svg width="113" height="123" viewBox="0 0 113 123" fill="none" xmlns="http://www.w3.org/2000/svg"><g filter="url(#a)"><path fill-rule="evenodd" clip-rule="evenodd" d="M75.761 69.68c7.646-5.88 12.573-15.121 12.573-25.513C88.334 26.402 73.933 12 56.167 12 38.402 12 24 26.402 24 44.167c0 9.414 4.044 17.883 10.488 23.765 4.282 4.483 7.834 7.454 11.44 10.471 2.782 2.328 5.597 4.683 8.804 7.78.797.77 2.072.768 2.862-.01 3.833-3.773 7.443-6.94 10.92-9.988 2.473-2.17 4.878-4.279 7.247-6.505Z" fill="#EF4850"/></g><defs><filter id="a" x="0" y="0" width="112.334" height="122.758" filterUnits="userSpaceOnUse" color-interpolation-filters="sRGB"><feFlood flood-opacity="0" result="BackgroundImageFix"/><feColorMatrix in="SourceAlpha" values="0 0 0 0 0 0 0 0 0 0 0 0 0 0 0 0 0 0 127 0" result="hardAlpha"/><feOffset dy="12"/><feGaussianBlur stdDeviation="12"/><feComposite in2="hardAlpha" operator="out"/><feColorMatrix values="0 0 0 0 0.444288 0 0 0 0 0.654167 0 0 0 0 0.465276 0 0 0 0.32 0"/><feBlend in2="BackgroundImageFix" result="effect1_dropShadow_111_8177"/><feBlend in="SourceGraphic" in2="effect1_dropShadow_111_8177" result="shape"/></filter></defs></svg>