<svg width="103" height="110" viewBox="0 0 103 110" fill="none" xmlns="http://www.w3.org/2000/svg">
<g clip-path="url(#clip0_7_446)">
<path d="M77.6055 41.8646H66.5352V79.8733C66.5352 80.6879 66.5352 80.6891 65.7411 80.6891H61.1231C61.1082 80.3904 61.0876 80.1502 61.0876 79.911C61.0876 71.4255 61.0849 62.94 61.0796 54.4545C61.0796 52.6237 61.0269 50.793 60.4285 49.0343C59.9571 47.6439 59.2832 46.3307 58.4284 45.1371C56.7773 42.8246 54.4752 41.7136 51.705 41.59C50.4509 41.5363 49.1947 41.6266 47.9611 41.8589C45.5697 42.3086 43.7836 43.7 42.4906 45.7493C41.0754 47.9607 40.3288 50.5337 40.3406 53.1592C40.3406 62.065 40.3406 70.9701 40.3406 79.8744C40.3406 80.6834 40.3406 80.6845 39.5397 80.6845H34.9113V41.8704C34.6276 41.8509 34.4056 41.8212 34.1847 41.8212C30.9432 41.8212 27.7016 41.8303 24.4589 41.8074C23.9131 41.8074 23.7506 41.947 23.7506 42.5065C23.7666 54.9404 23.7708 67.3742 23.7632 79.808V80.6216C23.6207 80.6535 23.4762 80.6761 23.3307 80.6891C21.8238 80.6891 20.318 80.6891 18.811 80.6982C18.4495 80.6982 18.271 80.5941 18.3099 80.2108C18.327 80.0415 18.3099 79.8675 18.3099 79.6959V41.8807H7.59428V42.6599C7.59428 55.054 7.59428 67.4497 7.59428 79.8469C7.59428 80.6914 7.59428 80.6925 6.76586 80.6925H2.19814C2.18441 80.3801 2.16382 80.1204 2.16382 79.863C2.16382 67.4291 2.16382 54.9953 2.16382 42.5615C2.16382 41.82 2.16382 41.82 1.41321 41.8189C1.03219 41.8189 0.650018 41.8189 0.268993 41.8097C0.195855 41.8016 0.123516 41.7875 0.0527344 41.7674V37.6253C0.281578 37.6127 0.52416 37.5898 0.762158 37.5898H100.702C101.433 37.5898 101.434 37.5898 101.434 38.345V41.8109H99.2598V80.6891H97.2185C96.2837 80.6891 95.3489 80.6662 94.4152 80.6982C93.9575 80.7143 93.8282 80.5449 93.8328 80.1044C93.8523 78.3114 93.8408 76.5196 93.8408 74.7266V41.8612C93.5742 41.844 93.3694 41.82 93.1646 41.82C90.018 41.82 86.8714 41.8315 83.7248 41.8063C83.1756 41.8063 83.0199 41.9539 83.0199 42.51C83.036 54.9614 83.0402 67.4127 83.0325 79.8641C83.0325 80.6891 83.0325 80.6891 82.1973 80.6891C80.8436 80.6891 79.4889 80.6776 78.1353 80.6959C77.7428 80.6959 77.5632 80.5724 77.6009 80.1719C77.6181 79.9831 77.6009 79.7909 77.6009 79.5998V41.8646H77.6055Z" fill="white"/>
<path d="M50.6902 34.2439H0.863004C-0.086696 34.2439 0.011695 34.3446 0.00711809 33.3835C0.00254122 32.4224 0.0185675 31.4383 0.000260046 30.4657C-0.00660526 30.0962 0.121541 29.9348 0.494556 29.9669C0.665044 29.9817 0.837821 29.9669 1.00945 29.9669C34.1521 29.9669 67.294 29.9669 100.435 29.9669C101.587 29.9669 101.425 29.8605 101.434 30.9806C101.441 31.9155 101.424 32.8503 101.434 33.784C101.441 34.1272 101.32 34.2748 100.969 34.2417C100.781 34.2245 100.588 34.2417 100.397 34.2417L50.6902 34.2439Z" fill="white"/>
<path d="M15.7464 97.0061C16.1091 97.2349 16.4443 97.4146 16.7464 97.64C18.4627 98.9192 19.179 100.681 19.0852 102.768C19.0579 103.586 18.9126 104.395 18.6538 105.171C17.7202 107.843 15.656 109.15 12.9545 109.27C9.30099 109.433 5.6315 109.368 1.97801 109.422C1.41277 109.43 1.49743 109.079 1.49743 108.742V92.4944C1.49743 90.3776 1.50773 88.2608 1.48828 86.144C1.48828 85.6978 1.61414 85.5513 2.07183 85.5547C5.25619 85.5742 8.44054 85.5284 11.6238 85.5914C12.7092 85.606 13.7873 85.7708 14.8276 86.0811C17.322 86.8523 18.8495 89.2849 18.6493 91.9349C18.4605 94.3835 17.9158 95.3458 15.7464 97.0061ZM8.94172 99.187V99.1046C7.93137 99.1046 6.92217 99.1194 5.91183 99.0966C5.51708 99.0886 5.37519 99.2201 5.37748 99.6183C5.38968 101.638 5.38968 103.658 5.37748 105.677C5.37748 106.04 5.49189 106.183 5.87406 106.179C7.89361 106.16 9.91429 106.186 11.9384 106.144C13.0895 106.121 14.093 105.679 14.5999 104.585C14.8645 103.977 15.0236 103.328 15.0701 102.667C15.2269 100.824 14.2383 99.4707 12.4213 99.2167C11.2794 99.0565 10.102 99.187 8.94172 99.187V99.187ZM5.3832 92.3125C5.3832 93.3228 5.3832 94.3332 5.3832 95.3424C5.3832 95.6742 5.44041 95.871 5.85004 95.8664C7.7174 95.847 9.58591 95.8859 11.4567 95.8424C13.1547 95.8024 14.2772 94.8595 14.6079 93.2393C14.6957 92.7517 14.7195 92.2547 14.6788 91.761C14.5736 90.1247 13.649 89.0446 12.0151 88.9416C9.92803 88.81 7.82953 88.8478 5.73562 88.8432C5.62119 88.8432 5.41066 89.127 5.40608 89.2826C5.36947 90.2918 5.38435 91.3022 5.3832 92.3125V92.3125Z" fill="white"/>
<path d="M43.7655 105.872H49.1433C49.1186 105.977 49.0801 106.079 49.0289 106.175C48.3149 107.165 47.6112 108.163 46.8548 109.123C46.7152 109.301 46.372 109.399 46.1225 109.401C41.6223 109.417 37.1221 109.412 32.6208 109.412H22.7656C22.9064 109.121 22.9865 108.935 23.0837 108.758C27.2029 101.196 31.3171 93.6329 35.4264 86.0688C35.6232 85.7061 35.8383 85.5505 36.2628 85.5539C38.533 85.5745 40.8019 85.5837 43.0709 85.5539C43.6339 85.5459 43.73 85.7622 43.73 86.2519C43.7185 92.526 43.7163 98.8002 43.7231 105.074C43.7277 105.333 43.7483 105.594 43.7655 105.872ZM39.9003 88.5804C39.2641 88.5804 38.692 88.6101 38.1245 88.5712C37.6816 88.5403 37.4505 88.696 37.2411 89.0907C34.344 94.557 31.4388 100.02 28.5256 105.479C28.4387 105.642 28.3631 105.811 28.2625 106.019H39.8957L39.9003 88.5804Z" fill="white"/>
<path d="M70.1527 98.45H58.2597C58.2437 98.7029 58.2151 98.9443 58.2151 99.1846C58.2151 102.369 58.199 105.552 58.2254 108.735C58.2254 109.297 58.0594 109.454 57.5159 109.422C56.6973 109.377 55.8768 109.377 55.0582 109.422C54.4861 109.454 54.3602 109.246 54.3613 108.708C54.3774 101.979 54.3808 95.2496 54.3716 88.5193C54.3716 87.7001 54.3831 86.8797 54.3716 86.0604C54.3648 85.6965 54.4861 85.5489 54.8682 85.5569C55.7836 85.5753 56.699 85.5867 57.6143 85.5569C58.0903 85.5398 58.2322 85.692 58.2277 86.168C58.2082 88.8946 58.2174 91.6202 58.2208 94.3468C58.2208 94.5757 58.2482 94.7931 58.2643 95.0334H70.1641V86.3373C70.1641 85.573 70.1641 85.5718 70.9559 85.5718C71.8324 85.5718 72.71 85.5833 73.5876 85.5718C73.9366 85.565 74.0773 85.7034 74.0579 86.0398C74.0579 86.1542 74.0579 86.2686 74.0579 86.3831V108.619C74.0579 109.412 74.0579 109.412 73.2913 109.413C72.472 109.413 71.6505 109.384 70.8323 109.423C70.3117 109.448 70.1458 109.289 70.1527 108.755C70.1756 105.572 70.1641 102.388 70.1641 99.204L70.1527 98.45Z" fill="white"/>
<path d="M80.3691 109.413C83.2766 105.226 86.0788 101.192 88.9096 97.1179L80.7525 85.5613C81.5957 85.5613 82.272 85.5522 82.9482 85.5613C83.764 85.5739 84.7034 85.3588 85.3579 85.6941C85.993 86.019 86.342 86.9115 86.8042 87.5637C88.2803 89.645 89.7494 91.7321 91.2667 93.8718C91.4005 93.6921 91.515 93.5537 91.6099 93.4049C93.2576 90.954 94.911 88.5054 96.5404 86.0419C96.7806 85.6803 97.0324 85.535 97.4672 85.5487C98.4672 85.5808 99.4673 85.559 100.602 85.559C100.407 85.8668 100.297 86.0568 100.172 86.2376C97.9165 89.5176 95.6578 92.7977 93.3961 96.0778C93.1672 96.4131 93.1603 96.6305 93.3961 96.968C96.1742 100.886 98.9409 104.812 101.696 108.747C101.811 108.915 101.925 109.09 102.075 109.308C101.979 109.351 101.879 109.381 101.776 109.399C100.479 109.399 99.1824 109.422 97.886 109.385C97.6754 109.385 97.4088 109.177 97.275 108.989C95.2306 106.117 93.1962 103.237 91.1717 100.349C91.0573 100.181 90.9245 100.021 90.7563 99.7988C90.5962 100.028 90.4657 100.204 90.3421 100.387C88.4233 103.231 86.4987 106.07 84.5959 108.925C84.3545 109.287 84.097 109.427 83.6645 109.415C82.6244 109.392 81.5809 109.413 80.3691 109.413Z" fill="white"/>
<path d="M34.8905 22.9863H66.5052C66.5166 23.2152 66.5349 23.4166 66.5361 23.6191C66.5361 24.5905 66.5029 25.5643 66.5498 26.5334C66.5773 27.1055 66.3599 27.2268 65.8301 27.2199C55.7496 27.2077 45.669 27.2077 35.5884 27.2199C35.0552 27.2199 34.8539 27.0975 34.8767 26.5254C34.9237 25.3743 34.8905 24.2129 34.8905 22.9863Z" fill="white"/>
<path d="M44.275 19.5522C44.275 18.2352 44.267 16.9456 44.2876 15.6549C44.2876 15.5474 44.4615 15.3998 44.5873 15.3472C44.7132 15.2945 44.8871 15.3277 45.045 15.3277H56.351C57.152 15.3277 57.152 15.3277 57.152 16.1481V19.5522H44.275Z" fill="white"/>
<path d="M55.4453 4.22515C55.1878 4.23888 55.0196 4.25719 54.8514 4.25719C52.0893 4.25719 49.3271 4.24574 46.5639 4.26977C46.0501 4.26977 45.9071 4.10729 45.9208 3.61757C45.9506 2.58777 45.9414 1.55798 45.9208 0.528182C45.9151 0.134571 46.0638 -0.00616728 46.4575 -0.00387884C49.2799 0.00680052 52.0996 0.00680052 54.9167 -0.00387884C55.2965 -0.00387884 55.4579 0.0968116 55.4499 0.512163C55.4361 1.73075 55.4453 2.9482 55.4453 4.22515Z" fill="white"/>
<path d="M21.9255 23.2193L23.8397 27.1417H18.4219L20.3396 23.241C19.1233 22.3257 18.7789 21.5659 19.1107 20.5521C19.2516 20.134 19.5183 19.7697 19.8743 19.5092C20.2303 19.2486 20.6582 19.1045 21.0993 19.0967C21.5409 19.0952 21.9719 19.2314 22.3324 19.4863C22.6929 19.7412 22.965 20.1022 23.1109 20.519C23.4622 21.543 23.1292 22.3074 21.9255 23.2193Z" fill="white"/>
<path d="M83.0272 27.1624H77.5898L79.5144 23.2149C78.321 22.3361 77.9777 21.5352 78.3302 20.5134C78.4792 20.0982 78.7533 19.7395 79.1149 19.4868C79.4764 19.2341 79.9075 19.0999 80.3486 19.1026C80.8085 19.1109 81.2533 19.2684 81.6161 19.5513C81.9789 19.8342 82.2399 20.2272 82.3601 20.6713C82.6358 21.6519 82.2457 22.4574 81.0946 23.2195L83.0272 27.1624Z" fill="white"/>
<path d="M4.92132 19.1406C5.90993 20.4725 6.87908 21.7643 7.8242 23.0722C7.86238 23.1486 7.88159 23.2331 7.8802 23.3186C7.8788 23.404 7.85684 23.4879 7.81618 23.563C6.86992 24.872 5.90306 26.1638 4.9156 27.4957C4.80641 27.4085 4.70462 27.3124 4.61124 27.2085C3.71761 26.0254 2.82054 24.8434 1.94979 23.642C1.84796 23.5035 1.80333 23.1843 1.88915 23.0699C2.81482 21.7918 3.77253 20.5366 4.72337 19.2768C4.78375 19.2237 4.85019 19.178 4.92132 19.1406V19.1406Z" fill="white"/>
<path d="M96.5129 27.4863L94.8263 25.2048C94.4304 24.6704 94.0162 24.1464 93.6477 23.5937C93.5608 23.4633 93.5425 23.1749 93.6272 23.0571C94.57 21.7481 95.5403 20.4574 96.538 19.1152C96.6534 19.2263 96.7627 19.3436 96.8653 19.4665C97.736 20.6279 98.6125 21.7721 99.4604 22.9438C99.5748 23.0983 99.6343 23.4369 99.5439 23.5628C98.6205 24.8432 97.6571 26.0961 96.7108 27.3559C96.6505 27.4075 96.584 27.4513 96.5129 27.4863V27.4863Z" fill="white"/>
<path d="M50.7002 12.3986L47.168 7.63867H54.2404L50.7002 12.3986Z" fill="white"/>
</g>
<defs>
<clipPath id="clip0_7_446">
<rect width="102.076" height="109.428" fill="white"/>
</clipPath>
</defs>
</svg>
