<svg width="55" height="55" viewBox="0 0 55 55" fill="none" xmlns="http://www.w3.org/2000/svg">
<rect width="55" height="55" rx="10" fill="#EF4850"/>
<g clip-path="url(#clip0_212_4710)">
<path d="M35.0486 23.8942H31.9035V34.6925C31.9035 34.924 31.9035 34.9243 31.6779 34.9243H30.3659C30.3617 34.8395 30.3558 34.7712 30.3558 34.7033C30.3558 32.2925 30.3551 29.8817 30.3535 27.471C30.3535 26.9509 30.3386 26.4307 30.1686 25.9311C30.0346 25.5361 29.8432 25.163 29.6003 24.8239C29.1313 24.1669 28.4772 23.8513 27.6902 23.8162C27.3339 23.8009 26.977 23.8265 26.6265 23.8925C25.9471 24.0203 25.4397 24.4156 25.0724 24.9978C24.6703 25.6261 24.4582 26.3571 24.4615 27.103C24.4615 29.6332 24.4615 32.1631 24.4615 34.6929C24.4615 34.9227 24.4615 34.923 24.234 34.923H22.9191V23.8958C22.8384 23.8903 22.7754 23.8818 22.7126 23.8818C21.7917 23.8818 20.8708 23.8844 19.9495 23.8779C19.7944 23.8779 19.7483 23.9176 19.7483 24.0765C19.7528 27.609 19.754 31.1415 19.7518 34.674V34.9051C19.7113 34.9142 19.6703 34.9206 19.629 34.9243C19.2008 34.9243 18.773 34.9243 18.3449 34.9269C18.2422 34.9269 18.1915 34.8973 18.2025 34.7884C18.2074 34.7403 18.2025 34.6909 18.2025 34.6421V23.8987H15.1582V24.1201C15.1582 27.6413 15.1582 31.163 15.1582 34.6851C15.1582 34.925 15.1582 34.9253 14.9228 34.9253H13.6251C13.6212 34.8365 13.6154 34.7627 13.6154 34.6896C13.6154 31.1571 13.6154 27.6246 13.6154 24.0921C13.6154 23.8815 13.6154 23.8815 13.4021 23.8812C13.2939 23.8812 13.1853 23.8812 13.0771 23.8786C13.0563 23.8763 13.0357 23.8723 13.0156 23.8665V22.6898C13.0806 22.6862 13.1496 22.6797 13.2172 22.6797H41.6103C41.818 22.6797 41.8183 22.6797 41.8183 22.8942V23.8789H41.2007V34.9243H40.6207C40.3551 34.9243 40.0896 34.9178 39.8243 34.9269C39.6943 34.9315 39.6575 34.8834 39.6588 34.7582C39.6644 34.2488 39.6611 33.7397 39.6611 33.2303V23.8932C39.5854 23.8883 39.5272 23.8815 39.469 23.8815C38.575 23.8815 37.6811 23.8847 36.7871 23.8776C36.6311 23.8776 36.5869 23.9195 36.5869 24.0775C36.5914 27.615 36.5926 31.1525 36.5904 34.6899C36.5904 34.9243 36.5904 34.9243 36.3531 34.9243C35.9686 34.9243 35.5837 34.9211 35.1991 34.9263C35.0876 34.9263 35.0366 34.8912 35.0473 34.7774C35.0522 34.7237 35.0473 34.6691 35.0473 34.6148V23.8942H35.0486Z" fill="white"/>
<path d="M27.4013 21.729H13.2452C12.9754 21.729 13.0033 21.7576 13.002 21.4845C13.0007 21.2114 13.0053 20.9319 13.0001 20.6556C12.9981 20.5506 13.0345 20.5047 13.1405 20.5138C13.1889 20.518 13.238 20.5138 13.2868 20.5138C22.7027 20.5138 32.1184 20.5138 41.5339 20.5138C41.8613 20.5138 41.8151 20.4836 41.8177 20.8018C41.8197 21.0674 41.8148 21.333 41.8177 21.5983C41.8197 21.6958 41.7852 21.7377 41.6857 21.7283C41.6321 21.7234 41.5775 21.7283 41.5232 21.7283L27.4013 21.729Z" fill="white"/>
<path d="M17.4726 39.56C17.5757 39.625 17.6709 39.6761 17.7568 39.7401C18.2444 40.1035 18.4479 40.6042 18.4212 41.1971C18.4134 41.4294 18.3722 41.6593 18.2987 41.8798C18.0334 42.6388 17.447 43.01 16.6795 43.0442C15.6415 43.0907 14.599 43.0721 13.561 43.0874C13.4004 43.0897 13.4245 42.9899 13.4245 42.8943V38.2782C13.4245 37.6769 13.4274 37.0755 13.4219 36.4741C13.4219 36.3473 13.4576 36.3057 13.5877 36.3067C14.4923 36.3122 15.397 36.2992 16.3014 36.3171C16.6098 36.3212 16.9161 36.368 17.2116 36.4562C17.9203 36.6753 18.3542 37.3664 18.2974 38.1193C18.2437 38.8149 18.089 39.0883 17.4726 39.56ZM15.5394 40.1796V40.1562C15.2524 40.1562 14.9657 40.1604 14.6786 40.1539C14.5665 40.1517 14.5262 40.189 14.5268 40.3022C14.5303 40.876 14.5303 41.4498 14.5268 42.0234C14.5268 42.1265 14.5593 42.1671 14.6679 42.1661C15.2416 42.1606 15.8157 42.1681 16.3908 42.1561C16.7178 42.1496 17.0029 42.0241 17.1469 41.7133C17.2221 41.5405 17.2673 41.3562 17.2805 41.1682C17.3251 40.6448 17.0442 40.2602 16.528 40.1881C16.2035 40.1426 15.869 40.1796 15.5394 40.1796V40.1796ZM14.5284 38.2266C14.5284 38.5136 14.5284 38.8006 14.5284 39.0874C14.5284 39.1816 14.5447 39.2375 14.6611 39.2362C15.1916 39.2307 15.7224 39.2418 16.2539 39.2294C16.7363 39.218 17.0552 38.9502 17.1492 38.4899C17.1741 38.3513 17.1809 38.2101 17.1693 38.0699C17.1394 37.605 16.8768 37.2981 16.4126 37.2689C15.8196 37.2315 15.2234 37.2422 14.6286 37.2409C14.596 37.2409 14.5362 37.3215 14.5349 37.3658C14.5245 37.6525 14.5288 37.9395 14.5284 38.2266V38.2266Z" fill="white"/>
<path d="M25.4329 42.0791H26.9608C26.9537 42.1091 26.9428 42.138 26.9283 42.1652C26.7254 42.4464 26.5255 42.7299 26.3106 43.0026C26.271 43.0533 26.1734 43.0813 26.1026 43.0816C24.824 43.0862 23.5455 43.0849 22.2667 43.0849H19.4668C19.5068 43.0023 19.5295 42.9493 19.5572 42.8989C20.7274 40.7506 21.8963 38.602 23.0638 36.453C23.1197 36.3499 23.1808 36.3057 23.3014 36.3067C23.9463 36.3126 24.591 36.3152 25.2356 36.3067C25.3955 36.3044 25.4228 36.3659 25.4228 36.505C25.4196 38.2875 25.4189 40.07 25.4209 41.8525C25.4222 41.926 25.428 42.0001 25.4329 42.0791ZM24.3348 37.1665C24.1541 37.1665 23.9915 37.175 23.8303 37.1639C23.7045 37.1551 23.6388 37.1994 23.5793 37.3115C22.7562 38.8645 21.9309 40.4165 21.1032 41.9676C21.0785 42.0137 21.0571 42.0618 21.0285 42.121H24.3335L24.3348 37.1665Z" fill="white"/>
<path d="M32.9317 39.97H29.5528C29.5483 40.0418 29.5402 40.1104 29.5402 40.1787C29.5402 41.0833 29.5356 41.9877 29.5431 42.8921C29.5431 43.0517 29.496 43.0962 29.3415 43.0871C29.109 43.0743 28.8759 43.0743 28.6433 43.0871C28.4807 43.0962 28.445 43.037 28.4453 42.8843C28.4499 40.9726 28.4508 39.0607 28.4482 37.1486C28.4482 36.9159 28.4515 36.6828 28.4482 36.45C28.4463 36.3467 28.4807 36.3047 28.5893 36.307C28.8494 36.3122 29.1094 36.3155 29.3695 36.307C29.5047 36.3021 29.545 36.3454 29.5437 36.4806C29.5382 37.2553 29.5408 38.0296 29.5418 38.8042C29.5418 38.8693 29.5496 38.931 29.5541 38.9993H32.9349V36.5287C32.9349 36.3116 32.9349 36.3112 33.1599 36.3112C33.4089 36.3112 33.6582 36.3145 33.9076 36.3112C34.0067 36.3093 34.0467 36.3486 34.0412 36.4442C34.0412 36.4767 34.0412 36.5092 34.0412 36.5417V42.8589C34.0412 43.0842 34.0412 43.0842 33.8234 43.0845C33.5906 43.0845 33.3572 43.0764 33.1248 43.0874C32.9769 43.0946 32.9297 43.0494 32.9317 42.8976C32.9382 41.9932 32.9349 41.0889 32.9349 40.1842L32.9317 39.97Z" fill="white"/>
<path d="M35.832 43.0842C36.658 41.8948 37.4542 40.7489 38.2584 39.5913L35.9409 36.308C36.1805 36.308 36.3726 36.3054 36.5648 36.308C36.7965 36.3116 37.0634 36.2505 37.2494 36.3457C37.4298 36.4381 37.5289 36.6916 37.6603 36.8769C38.0796 37.4682 38.497 38.0612 38.9281 38.6691C38.9661 38.618 38.9986 38.5787 39.0256 38.5364C39.4937 37.8401 39.9634 37.1444 40.4263 36.4446C40.4946 36.3418 40.5661 36.3006 40.6896 36.3045C40.9738 36.3136 41.2579 36.3074 41.5803 36.3074C41.5248 36.3948 41.4935 36.4488 41.4581 36.5001C40.8173 37.432 40.1756 38.3639 39.533 39.2958C39.468 39.391 39.4661 39.4528 39.533 39.5487C40.3223 40.6618 41.1083 41.7772 41.8911 42.895C41.9236 42.9428 41.9561 42.9926 41.9987 43.0546C41.9716 43.0667 41.9431 43.0753 41.9139 43.0803C41.5452 43.0803 41.1769 43.0868 40.8086 43.0764C40.7488 43.0764 40.6731 43.0173 40.635 42.964C40.0542 42.148 39.4762 41.3298 38.9011 40.5093C38.8686 40.4615 38.8309 40.416 38.7831 40.3529C38.7376 40.418 38.7005 40.468 38.6654 40.52C38.1202 41.3282 37.5735 42.1347 37.0329 42.9457C36.9643 43.0485 36.8911 43.0885 36.7682 43.0849C36.4728 43.0784 36.1763 43.0842 35.832 43.0842Z" fill="white"/>
<path d="M22.9126 18.5303H31.8944C31.8977 18.5953 31.9029 18.6525 31.9032 18.71C31.9032 18.986 31.8938 19.2627 31.9071 19.538C31.9149 19.7005 31.8532 19.735 31.7026 19.7331C28.8387 19.7296 25.9748 19.7296 23.1109 19.7331C22.9594 19.7331 22.9022 19.6983 22.9087 19.5357C22.922 19.2087 22.9126 18.8788 22.9126 18.5303Z" fill="white"/>
<path d="M25.5786 17.5547C25.5786 17.1805 25.5763 16.8142 25.5821 16.4475C25.5821 16.4169 25.6315 16.375 25.6673 16.36C25.7031 16.3451 25.7525 16.3545 25.7973 16.3545H29.0094C29.237 16.3545 29.237 16.3545 29.237 16.5876V17.5547H25.5786Z" fill="white"/>
<path d="M28.7531 13.2005C28.6799 13.2044 28.6321 13.2096 28.5843 13.2096C27.7996 13.2096 27.0149 13.2064 26.2298 13.2132C26.0839 13.2132 26.0432 13.167 26.0471 13.0279C26.0556 12.7353 26.053 12.4428 26.0471 12.1502C26.0455 12.0384 26.0878 11.9984 26.1996 11.999C27.0014 12.0021 27.8025 12.0021 28.6029 11.999C28.7108 11.999 28.7566 12.0276 28.7544 12.1456C28.7505 12.4918 28.7531 12.8377 28.7531 13.2005Z" fill="white"/>
<path d="M19.2298 18.597L19.7736 19.7114H18.2344L18.7792 18.6032C18.4336 18.3431 18.3358 18.1273 18.4301 17.8393C18.4701 17.7205 18.5459 17.617 18.647 17.543C18.7482 17.4689 18.8697 17.428 18.9951 17.4258C19.1205 17.4254 19.2429 17.4641 19.3454 17.5365C19.4478 17.6089 19.5251 17.7115 19.5665 17.8299C19.6663 18.1208 19.5717 18.3379 19.2298 18.597Z" fill="white"/>
<path d="M36.5877 19.7166H35.043L35.5897 18.5951C35.2507 18.3454 35.1532 18.1179 35.2533 17.8276C35.2956 17.7096 35.3735 17.6077 35.4762 17.5359C35.5789 17.4641 35.7014 17.426 35.8267 17.4268C35.9574 17.4291 36.0838 17.4739 36.1868 17.5542C36.2899 17.6346 36.3641 17.7463 36.3982 17.8724C36.4766 18.151 36.3657 18.3799 36.0387 18.5964L36.5877 19.7166Z" fill="white"/>
<path d="M14.3978 17.4375C14.6787 17.8159 14.954 18.1829 15.2225 18.5545C15.2333 18.5762 15.2388 18.6002 15.2384 18.6245C15.238 18.6487 15.2318 18.6726 15.2202 18.6939C14.9514 19.0658 14.6767 19.4328 14.3962 19.8112C14.3651 19.7864 14.3362 19.7591 14.3097 19.7296C14.0558 19.3935 13.8009 19.0577 13.5536 18.7163C13.5246 18.677 13.512 18.5863 13.5363 18.5538C13.7993 18.1907 14.0714 17.8341 14.3415 17.4762C14.3587 17.4611 14.3776 17.4481 14.3978 17.4375V17.4375Z" fill="white"/>
<path d="M40.4194 19.8089L39.9403 19.1607C39.8278 19.0089 39.7101 18.86 39.6054 18.703C39.5807 18.666 39.5755 18.584 39.5996 18.5505C39.8674 18.1787 40.1431 17.812 40.4266 17.4307C40.4593 17.4622 40.4904 17.4955 40.5195 17.5305C40.7669 17.8604 41.0159 18.1855 41.2568 18.5184C41.2893 18.5623 41.3062 18.6585 41.2805 18.6942C41.0182 19.058 40.7445 19.414 40.4757 19.7719C40.4585 19.7865 40.4396 19.799 40.4194 19.8089V19.8089Z" fill="white"/>
<path d="M27.4039 15.5222L26.4004 14.1699H28.4097L27.4039 15.5222Z" fill="white"/>
</g>
<defs>
<clipPath id="clip0_212_4710">
<rect width="29" height="31.0889" fill="white" transform="translate(13 12)"/>
</clipPath>
</defs>
</svg>
