<svg width="688" height="484" viewBox="0 0 688 484" fill="none" xmlns="http://www.w3.org/2000/svg">
<g clip-path="url(#clip0_278_3891)">
<rect width="688" height="484" fill="#EF4850"/>
<g clip-path="url(#clip1_278_3891)">
<path d="M391.724 218.914H371.65V287.835C371.65 289.313 371.65 289.315 370.21 289.315H361.836C361.809 288.773 361.771 288.337 361.771 287.904C361.771 272.517 361.766 257.13 361.757 241.743C361.757 238.423 361.661 235.104 360.576 231.915C359.721 229.393 358.499 227.012 356.949 224.848C353.955 220.654 349.781 218.64 344.758 218.416C342.484 218.318 340.206 218.482 337.969 218.903C333.632 219.719 330.394 222.242 328.049 225.958C325.483 229.968 324.129 234.633 324.15 239.394C324.15 255.543 324.15 271.691 324.15 287.837C324.15 289.304 324.15 289.306 322.698 289.306H314.305V218.924C313.791 218.889 313.388 218.835 312.988 218.835C307.11 218.835 301.232 218.851 295.352 218.81C294.362 218.81 294.067 219.063 294.067 220.078C294.097 242.624 294.104 265.171 294.09 287.717V289.192C293.832 289.25 293.57 289.291 293.306 289.315C290.573 289.315 287.843 289.315 285.11 289.331C284.455 289.331 284.131 289.142 284.202 288.447C284.233 288.14 284.202 287.825 284.202 287.514V218.943H264.771V220.356C264.771 242.83 264.771 265.308 264.771 287.788C264.771 289.319 264.771 289.321 263.269 289.321H254.986C254.961 288.754 254.924 288.284 254.924 287.817C254.924 265.27 254.924 242.724 254.924 220.177C254.924 218.833 254.924 218.833 253.563 218.831C252.872 218.831 252.179 218.831 251.488 218.814C251.355 218.799 251.224 218.774 251.096 218.737V211.226C251.511 211.204 251.951 211.162 252.382 211.162H433.604C434.93 211.162 434.932 211.162 434.932 212.531V218.816H430.99V289.315H427.288C425.593 289.315 423.898 289.273 422.205 289.331C421.375 289.36 421.14 289.053 421.149 288.254C421.184 285.003 421.163 281.754 421.163 278.503V218.907C420.68 218.876 420.308 218.833 419.937 218.833C414.231 218.833 408.525 218.853 402.82 218.808C401.824 218.808 401.542 219.076 401.542 220.084C401.571 242.662 401.578 265.24 401.564 287.819C401.564 289.315 401.564 289.315 400.05 289.315C397.595 289.315 395.139 289.294 392.684 289.327C391.972 289.327 391.647 289.103 391.715 288.377C391.746 288.035 391.715 287.686 391.715 287.339V218.914H391.724Z" fill="white"/>
<path d="M342.917 205.096H252.565C250.843 205.096 251.021 205.279 251.013 203.536C251.005 201.793 251.034 200.008 251 198.245C250.988 197.575 251.22 197.282 251.897 197.34C252.206 197.367 252.519 197.34 252.83 197.34C312.929 197.34 373.025 197.34 433.121 197.34C435.21 197.34 434.915 197.147 434.932 199.179C434.944 200.874 434.913 202.569 434.932 204.262C434.944 204.884 434.725 205.152 434.09 205.092C433.747 205.061 433.399 205.092 433.052 205.092L342.917 205.096Z" fill="white"/>
<path d="M279.552 318.902C280.209 319.317 280.817 319.642 281.365 320.051C284.477 322.371 285.776 325.566 285.606 329.351C285.556 330.833 285.293 332.301 284.824 333.708C283.131 338.552 279.388 340.922 274.489 341.14C267.864 341.436 261.21 341.318 254.585 341.416C253.56 341.43 253.714 340.793 253.714 340.183V310.721C253.714 306.882 253.733 303.044 253.697 299.205C253.697 298.396 253.925 298.131 254.755 298.137C260.53 298.172 266.304 298.089 272.076 298.203C274.044 298.23 275.999 298.529 277.886 299.091C282.409 300.49 285.179 304.901 284.816 309.706C284.473 314.146 283.486 315.891 279.552 318.902ZM267.213 322.856V322.707C265.381 322.707 263.551 322.734 261.719 322.692C261.003 322.678 260.745 322.917 260.75 323.639C260.772 327.301 260.772 330.963 260.75 334.625C260.75 335.282 260.957 335.542 261.65 335.536C265.312 335.5 268.976 335.548 272.647 335.471C274.734 335.43 276.554 334.629 277.473 332.645C277.953 331.542 278.241 330.366 278.325 329.166C278.61 325.825 276.817 323.371 273.522 322.91C271.452 322.62 269.317 322.856 267.213 322.856V322.856ZM260.76 310.391C260.76 312.223 260.76 314.055 260.76 315.885C260.76 316.487 260.864 316.843 261.607 316.835C264.993 316.8 268.381 316.87 271.773 316.792C274.852 316.719 276.888 315.009 277.487 312.071C277.646 311.187 277.69 310.286 277.616 309.391C277.425 306.424 275.749 304.465 272.786 304.278C269.001 304.04 265.196 304.108 261.399 304.1C261.192 304.1 260.81 304.614 260.801 304.897C260.735 306.727 260.762 308.559 260.76 310.391V310.391Z" fill="white"/>
<path d="M330.361 334.98H340.112C340.068 335.171 339.998 335.356 339.905 335.53C338.61 337.324 337.334 339.134 335.963 340.874C335.71 341.198 335.087 341.377 334.635 341.379C326.474 341.408 318.314 341.399 310.152 341.399H292.281C292.536 340.872 292.682 340.534 292.858 340.213C300.327 326.501 307.788 312.787 315.239 299.071C315.596 298.413 315.986 298.131 316.756 298.137C320.872 298.174 324.987 298.191 329.101 298.137C330.122 298.123 330.296 298.515 330.296 299.403C330.276 310.78 330.271 322.157 330.284 333.534C330.292 334.003 330.329 334.476 330.361 334.98ZM323.352 303.625C322.198 303.625 321.161 303.679 320.132 303.608C319.329 303.552 318.91 303.835 318.53 304.55C313.276 314.463 308.008 324.368 302.726 334.268C302.568 334.563 302.431 334.87 302.249 335.248H323.344L323.352 303.625Z" fill="white"/>
<path d="M378.209 321.52H356.643C356.614 321.979 356.562 322.417 356.562 322.852C356.562 328.626 356.533 334.399 356.581 340.171C356.581 341.19 356.28 341.474 355.295 341.416C353.81 341.334 352.322 341.334 350.838 341.416C349.8 341.474 349.572 341.096 349.574 340.121C349.603 327.92 349.61 315.717 349.593 303.513C349.593 302.027 349.614 300.539 349.593 299.054C349.58 298.394 349.8 298.126 350.493 298.141C352.153 298.174 353.813 298.195 355.473 298.141C356.336 298.11 356.593 298.386 356.585 299.249C356.55 304.193 356.566 309.136 356.573 314.08C356.573 314.495 356.622 314.889 356.651 315.325H378.23V299.556C378.23 298.17 378.23 298.168 379.665 298.168C381.255 298.168 382.846 298.189 384.438 298.168C385.07 298.156 385.326 298.407 385.29 299.017C385.29 299.224 385.29 299.432 385.29 299.639V339.959C385.29 341.397 385.29 341.397 383.9 341.399C382.415 341.399 380.925 341.347 379.441 341.418C378.497 341.463 378.197 341.175 378.209 340.206C378.25 334.434 378.23 328.662 378.23 322.887L378.209 321.52Z" fill="white"/>
<path d="M396.734 341.399C402.007 333.807 407.088 326.493 412.221 319.105L397.429 298.149C398.959 298.149 400.185 298.133 401.411 298.149C402.89 298.172 404.594 297.782 405.781 298.39C406.932 298.979 407.565 300.598 408.403 301.78C411.08 305.554 413.744 309.339 416.495 313.219C416.738 312.893 416.945 312.642 417.117 312.372C420.105 307.928 423.103 303.488 426.058 299.021C426.494 298.365 426.95 298.102 427.739 298.126C429.552 298.184 431.365 298.145 433.424 298.145C433.069 298.703 432.87 299.048 432.643 299.375C428.553 305.323 424.458 311.271 420.356 317.219C419.941 317.827 419.929 318.221 420.356 318.833C425.394 325.937 430.411 333.057 435.407 340.191C435.615 340.496 435.822 340.814 436.094 341.21C435.921 341.287 435.739 341.342 435.552 341.374C433.199 341.374 430.849 341.416 428.498 341.349C428.116 341.349 427.633 340.972 427.39 340.631C423.683 335.424 419.994 330.201 416.323 324.964C416.115 324.659 415.875 324.369 415.57 323.966C415.279 324.381 415.043 324.701 414.819 325.033C411.339 330.191 407.849 335.338 404.399 340.515C403.961 341.171 403.494 341.426 402.71 341.403C400.824 341.362 398.932 341.399 396.734 341.399Z" fill="white"/>
<path d="M314.266 184.682H371.594C371.615 185.097 371.648 185.462 371.65 185.829C371.65 187.591 371.59 189.356 371.675 191.114C371.725 192.151 371.33 192.371 370.37 192.359C352.09 192.336 333.811 192.336 315.532 192.359C314.565 192.359 314.2 192.137 314.241 191.099C314.326 189.012 314.266 186.906 314.266 184.682Z" fill="white"/>
<path d="M331.286 178.454C331.286 176.066 331.271 173.728 331.309 171.388C331.309 171.192 331.624 170.925 331.852 170.829C332.081 170.734 332.396 170.794 332.682 170.794H353.184C354.636 170.794 354.636 170.794 354.636 172.282V178.454H331.286Z" fill="white"/>
<path d="M351.54 150.663C351.073 150.688 350.768 150.721 350.463 150.721C345.455 150.721 340.446 150.7 335.435 150.744C334.504 150.744 334.244 150.449 334.269 149.561C334.323 147.694 334.307 145.826 334.269 143.959C334.259 143.245 334.529 142.99 335.242 142.994C340.36 143.014 345.473 143.014 350.582 142.994C351.27 142.994 351.563 143.177 351.548 143.93C351.523 146.14 351.54 148.347 351.54 150.663Z" fill="white"/>
<path d="M290.757 185.105L294.229 192.217H284.404L287.882 185.144C285.676 183.484 285.052 182.106 285.653 180.268C285.909 179.51 286.392 178.849 287.038 178.377C287.684 177.904 288.46 177.643 289.259 177.629C290.06 177.626 290.842 177.873 291.495 178.335C292.149 178.798 292.643 179.452 292.907 180.208C293.544 182.065 292.94 183.451 290.757 185.105Z" fill="white"/>
<path d="M401.553 192.255H391.693L395.183 185.097C393.019 183.503 392.397 182.051 393.036 180.198C393.306 179.445 393.803 178.795 394.459 178.336C395.114 177.878 395.896 177.635 396.696 177.64C397.53 177.655 398.336 177.94 398.994 178.453C399.652 178.966 400.125 179.679 400.343 180.484C400.843 182.262 400.136 183.723 398.049 185.105L401.553 192.255Z" fill="white"/>
<path d="M259.924 177.708C261.717 180.123 263.474 182.466 265.188 184.837C265.257 184.976 265.292 185.129 265.29 185.284C265.287 185.439 265.247 185.591 265.174 185.727C263.458 188.101 261.705 190.443 259.914 192.858C259.716 192.7 259.531 192.526 259.362 192.338C257.742 190.192 256.115 188.049 254.536 185.87C254.351 185.619 254.27 185.04 254.426 184.833C256.105 182.515 257.841 180.239 259.565 177.955C259.675 177.859 259.795 177.776 259.924 177.708V177.708Z" fill="white"/>
<path d="M426.01 192.842L422.952 188.704C422.234 187.735 421.483 186.785 420.815 185.783C420.657 185.546 420.624 185.024 420.777 184.81C422.487 182.436 424.246 180.096 426.056 177.662C426.265 177.864 426.463 178.076 426.649 178.299C428.228 180.405 429.817 182.48 431.355 184.604C431.562 184.885 431.67 185.499 431.506 185.727C429.832 188.049 428.085 190.321 426.369 192.605C426.26 192.699 426.139 192.778 426.01 192.842V192.842Z" fill="white"/>
<path d="M342.936 165.483L336.531 156.852H349.356L342.936 165.483Z" fill="white"/>
</g>
</g>
<defs>
<clipPath id="clip0_278_3891">
<rect width="688" height="484" fill="white"/>
</clipPath>
<clipPath id="clip1_278_3891">
<rect width="185.096" height="198.428" fill="white" transform="translate(251 143)"/>
</clipPath>
</defs>
</svg>
