<svg width="24" height="24" viewBox="0 0 24 24" fill="none" xmlns="http://www.w3.org/2000/svg">
<path d="M20.7095 16.0997L19.0695 14.4597C18.9259 14.3265 18.8275 14.1517 18.7881 13.9599C18.7486 13.7681 18.7701 13.5687 18.8495 13.3897C19.1982 12.6408 19.3823 11.8258 19.3895 10.9997C19.3941 10.9665 19.3941 10.9328 19.3895 10.8997C19.3929 9.70307 19.0223 8.5353 18.3295 7.55968C16.9905 5.68844 15.2161 4.17141 13.1595 3.13968C11.8549 2.50104 10.3839 2.28405 8.95052 2.51877C7.51711 2.75349 6.1922 3.4283 5.15945 4.44968L4.48945 5.11968C3.45733 6.15634 2.77593 7.49032 2.54096 8.93418C2.306 10.378 2.52929 11.8592 3.17945 13.1697L3.27945 13.3397C2.74579 13.8933 2.44509 14.6307 2.43945 15.3997C2.44342 15.9303 2.58806 16.4504 2.85861 16.9068C3.12916 17.3633 3.51595 17.7399 3.97951 17.9981C4.44308 18.2563 4.96684 18.3869 5.49737 18.3767C6.0279 18.3664 6.54622 18.2156 6.99945 17.9397C7.17945 18.0797 7.33945 18.2297 7.51945 18.3597C7.89796 18.6229 8.30778 18.8378 8.73945 18.9997H8.82945C9.00945 19.0697 9.19945 19.1297 9.39945 19.1897H9.54945C9.86066 19.2696 10.1788 19.3198 10.4995 19.3397H10.7795H10.8995H11.1195C11.3295 19.3397 11.5295 19.3397 11.7395 19.2797H11.9095C12.4011 19.1953 12.8789 19.0438 13.3295 18.8297C13.509 18.7574 13.7057 18.7387 13.8956 18.776C14.0855 18.8133 14.2606 18.9049 14.3995 19.0397L15.8595 20.4997C16.4929 21.1354 17.352 21.4948 18.2495 21.4997C19.0022 21.4916 19.7212 21.186 20.2495 20.6497L20.6295 20.2697C21.181 19.7207 21.4977 18.9789 21.5126 18.2009C21.5276 17.4228 21.2396 16.6694 20.7095 16.0997ZM5.40945 16.4197C5.21167 16.4197 5.01833 16.361 4.85388 16.2511C4.68943 16.1413 4.56126 15.9851 4.48557 15.8024C4.40989 15.6196 4.39008 15.4186 4.42867 15.2246C4.46725 15.0306 4.56249 14.8524 4.70235 14.7126C4.8422 14.5727 5.02038 14.4775 5.21436 14.4389C5.40834 14.4003 5.60941 14.4201 5.79214 14.4958C5.97486 14.5715 6.13104 14.6997 6.24092 14.8641C6.3508 15.0286 6.40945 15.2219 6.40945 15.4197C6.40945 15.6849 6.3041 15.9392 6.11656 16.1268C5.92902 16.3143 5.67467 16.4197 5.40945 16.4197ZM8.50945 16.5597L8.24945 16.3597C8.35358 16.0571 8.40762 15.7396 8.40945 15.4197C8.40945 14.624 8.09338 13.861 7.53077 13.2984C6.96816 12.7357 6.2051 12.4197 5.40945 12.4197C5.27945 12.4197 5.15945 12.4197 5.02945 12.4197L4.93945 12.2597C4.47433 11.3242 4.31391 10.2666 4.48071 9.23527C4.64751 8.20397 5.13316 7.25081 5.86945 6.50968L6.53945 5.83968C7.29011 5.12022 8.24638 4.65268 9.27518 4.50213C10.304 4.35157 11.3541 4.52549 12.2795 4.99968C13.9593 5.83989 15.4184 7.06269 16.5395 8.56968L8.50945 16.5597ZM19.2895 18.9297L18.9195 19.3097C18.4995 19.7297 17.8495 19.6497 17.3095 19.1097L15.8495 17.6597C15.4195 17.2325 14.8703 16.9456 14.274 16.8367C13.6778 16.7278 13.0626 16.8021 12.5095 17.0497C12.1942 17.2042 11.8568 17.3087 11.5095 17.3597C11.3183 17.3962 11.124 17.4129 10.9295 17.4097H10.5895H10.4895L17.3595 10.5397C17.4295 11.2248 17.3119 11.9161 17.0195 12.5397C16.7719 13.0929 16.6976 13.7081 16.8065 14.3043C16.9154 14.9005 17.2023 15.4497 17.6295 15.8797L19.2695 17.5297C19.4554 17.714 19.5616 17.9638 19.5654 18.2256C19.5691 18.4874 19.47 18.7401 19.2895 18.9297Z" fill="white"/>
</svg>
