<svg width="55" height="55" viewBox="0 0 55 55" fill="none" xmlns="http://www.w3.org/2000/svg"><rect width="55" height="55" rx="10" fill="#EF4850"/><g clip-path="url(#a)" fill="#fff"><path d="M35.049 23.894h-3.145v10.799c0 .231 0 .231-.226.231h-1.312c-.004-.084-.01-.153-.01-.22 0-2.412 0-4.822-.003-7.233 0-.52-.014-1.04-.184-1.54a4.24 4.24 0 0 0-.569-1.107c-.469-.657-1.123-.973-1.91-1.008a4.666 4.666 0 0 0-1.064.076c-.679.128-1.186.524-1.554 1.106a3.874 3.874 0 0 0-.61 2.105v7.59c0 .23 0 .23-.228.23h-1.315V23.896c-.08-.006-.144-.014-.206-.014-.921 0-1.842.002-2.764-.004-.155 0-.2.04-.2.198.004 3.533.005 7.066.003 10.598v.231a.944.944 0 0 1-.123.02c-.428 0-.856 0-1.284.002-.103 0-.153-.03-.142-.139.004-.048 0-.097 0-.146V23.9h-3.045v10.786c0 .24 0 .24-.235.24h-1.298c-.004-.088-.01-.162-.01-.235V24.092c0-.21 0-.21-.213-.21-.108 0-.217 0-.325-.003a.368.368 0 0 1-.061-.013V22.69c.065-.004.134-.01.201-.01H41.61c.208 0 .208 0 .208.214v.985h-.617v11.045h-.58c-.266 0-.531-.006-.797.003-.13.005-.166-.044-.165-.169.005-.51.002-1.018.002-1.528v-9.337c-.076-.005-.134-.012-.192-.012-.894 0-1.788.004-2.682-.003-.156 0-.2.041-.2.2.004 3.537.006 7.075.003 10.612 0 .234 0 .234-.237.234-.384 0-.77-.003-1.154.002-.111 0-.162-.035-.152-.149.005-.053 0-.108 0-.162v-10.72h.002ZM27.401 21.729H13.245c-.27 0-.242.029-.243-.244-.001-.274.003-.553-.002-.83-.002-.104.034-.15.14-.141.049.004.098 0 .147 0h28.247c.327 0 .281-.03.284.288.002.265-.003.531 0 .796.002.098-.033.14-.132.13-.054-.005-.108 0-.163 0l-14.122.001ZM17.473 39.56c.103.065.198.116.284.18.487.363.69.864.664 1.457a2.415 2.415 0 0 1-.122.683c-.266.759-.852 1.13-1.62 1.164-1.037.047-2.08.028-3.118.043-.16.003-.136-.097-.136-.193v-4.616c0-.601.002-1.203-.003-1.804 0-.127.036-.168.166-.167.904.005 1.809-.008 2.713.01.309.004.615.051.91.14.71.218 1.143.91 1.086 1.662-.053.696-.208.97-.824 1.441Zm-1.934.62v-.024c-.287 0-.573.004-.86-.002-.113-.002-.153.035-.152.148.003.574.003 1.148 0 1.721 0 .103.032.144.14.143.575-.005 1.149.002 1.724-.01.327-.006.612-.132.756-.443.075-.172.12-.357.134-.545.044-.523-.237-.908-.753-.98-.325-.045-.659-.008-.989-.008Zm-1.01-1.953v.86c0 .095.016.15.132.15.53-.006 1.061.005 1.593-.008.482-.011.801-.279.895-.74a1.62 1.62 0 0 0 .02-.42c-.03-.464-.292-.77-.756-.8-.593-.038-1.19-.027-1.784-.028-.033 0-.093.08-.094.125-.01.287-.006.574-.007.86ZM25.433 42.08h1.528a.358.358 0 0 1-.033.085c-.203.281-.402.565-.617.838-.04.05-.138.078-.208.079-1.279.004-2.558.003-3.836.003h-2.8c.04-.083.063-.136.09-.186 1.17-2.148 2.34-4.297 3.507-6.446.056-.103.117-.147.237-.146.645.006 1.29.008 1.935 0 .16-.003.187.059.187.198-.003 1.782-.004 3.565-.002 5.347.001.074.007.148.012.227Zm-1.098-4.913c-.18 0-.344.008-.505-.003-.125-.009-.191.035-.25.148a1871.42 1871.42 0 0 1-2.477 4.656c-.025.046-.046.094-.075.153h3.306v-4.955ZM32.932 39.97h-3.38c-.004.072-.012.14-.012.209 0 .904-.004 1.809.003 2.713 0 .16-.047.204-.201.195a6.352 6.352 0 0 0-.699 0c-.162.01-.198-.05-.198-.203.005-1.911.006-3.823.003-5.735 0-.233.003-.466 0-.699-.002-.103.033-.145.141-.143.26.005.52.008.78 0 .136-.005.176.038.175.174-.006.774-.003 1.549-.002 2.323 0 .065.008.127.012.195h3.38v-2.47c0-.217 0-.218.226-.218.249 0 .498.004.748 0 .099-.002.139.038.133.133v6.415c0 .225 0 .225-.218.225-.232 0-.466-.008-.698.003-.148.008-.195-.038-.193-.19.006-.904.003-1.808.003-2.713l-.003-.214ZM35.832 43.084l2.426-3.493-2.317-3.283c.24 0 .432-.003.624 0 .232.004.498-.057.684.038.18.092.28.346.411.53.42.592.837 1.185 1.268 1.793.038-.051.07-.09.098-.133.468-.696.937-1.392 1.4-2.091.069-.103.14-.144.264-.14.284.009.568.002.89.002-.055.088-.087.142-.122.193-.64.932-1.282 1.864-1.925 2.796-.065.095-.067.157 0 .253a696.47 696.47 0 0 1 2.358 3.346l.108.16a.355.355 0 0 1-.085.025c-.369 0-.737.007-1.105-.004-.06 0-.136-.059-.174-.112-.58-.816-1.159-1.634-1.734-2.455-.032-.047-.07-.093-.118-.156-.045.065-.083.115-.118.167-.545.808-1.091 1.615-1.632 2.426-.069.102-.142.143-.265.139-.295-.007-.592 0-.936 0ZM22.913 18.53h8.981c.004.065.009.122.01.18 0 .276-.01.553.003.828.008.163-.054.197-.204.195-2.864-.003-5.728-.003-8.592 0-.152 0-.209-.035-.202-.197.013-.327.004-.657.004-1.006ZM25.579 17.555c0-.375-.003-.74.003-1.107 0-.031.05-.073.085-.088.036-.015.085-.005.13-.005h3.212c.228 0 .228 0 .228.233v.967h-3.658ZM28.753 13.2c-.073.004-.12.01-.169.01-.784 0-1.57-.004-2.354.003-.146 0-.187-.046-.183-.185.009-.293.006-.585 0-.878-.002-.112.04-.152.153-.151.801.003 1.602.003 2.403 0 .108 0 .154.029.151.147-.004.346 0 .692 0 1.054ZM19.23 18.597l.544 1.114h-1.54l.545-1.108c-.345-.26-.443-.476-.349-.764a.607.607 0 0 1 .565-.413.604.604 0 0 1 .572.404c.1.29.005.508-.337.767ZM36.588 19.717h-1.545l.547-1.122c-.34-.25-.437-.477-.337-.767a.605.605 0 0 1 .574-.401.603.603 0 0 1 .571.445c.079.279-.032.508-.36.724l.55 1.12ZM14.398 17.438c.28.378.556.745.825 1.117a.152.152 0 0 1-.003.139c-.269.372-.543.739-.824 1.117a.718.718 0 0 1-.086-.081c-.254-.337-.51-.672-.756-1.014-.03-.039-.042-.13-.018-.162.263-.363.535-.72.806-1.078a.289.289 0 0 1 .056-.038ZM40.42 19.809l-.48-.648c-.112-.152-.23-.301-.335-.458-.024-.037-.03-.119-.005-.152.267-.372.543-.739.827-1.12.032.031.063.064.093.1.247.33.496.655.737.987.032.044.05.14.024.176-.263.364-.536.72-.805 1.078a.272.272 0 0 1-.057.037ZM27.404 15.522 26.4 14.17h2.01l-1.006 1.352Z"/></g><defs><clipPath id="a"><path fill="#fff" transform="translate(13 12)" d="M0 0h29v31.089H0z"/></clipPath></defs></svg>