<svg width="108" height="112" viewBox="0 0 108 112" fill="none" xmlns="http://www.w3.org/2000/svg"><g clip-path="url(#a)"><path d="M50.628 104.244h30.61a23.807 23.807 0 1 0 0-47.616H26.82a23.808 23.808 0 0 1 0-47.616h23.808" stroke="#fff" stroke-width="4" stroke-linecap="round" stroke-linejoin="round" stroke-dasharray="8 8"/><path d="M19.749 90.252a3.269 3.269 0 1 0 0-6.537 3.269 3.269 0 0 0 0 6.537Zm-1.16 11.294a1.638 1.638 0 0 0 1.788.358c.2-.083.38-.205.532-.358l6.685-6.701a11.098 11.098 0 1 0-15.69 0l6.684 6.701Zm-6.636-15.314a7.862 7.862 0 0 1 3.481-5.802 7.862 7.862 0 0 1 8.63 0 7.878 7.878 0 0 1 1.225 12.11l-5.54 5.54-5.54-5.54a7.796 7.796 0 0 1-2.256-6.308Zm19.236 19.056H8.31a1.637 1.637 0 0 0-1.635 1.635 1.637 1.637 0 0 0 1.634 1.634H31.19a1.636 1.636 0 0 0 1.635-1.634 1.635 1.635 0 0 0-1.635-1.635ZM80.766 18.34a3.269 3.269 0 1 0 0-6.538 3.269 3.269 0 0 0 0 6.538Zm-1.16 11.294a1.636 1.636 0 0 0 2.32 0l6.685-6.701a11.097 11.097 0 1 0-15.69 0l6.685 6.7ZM72.97 14.32a7.862 7.862 0 0 1 3.482-5.802 7.861 7.861 0 0 1 8.63 0 7.878 7.878 0 0 1 1.225 12.11l-5.54 5.54-5.541-5.54a7.796 7.796 0 0 1-2.256-6.308Zm19.237 19.056H69.326a1.634 1.634 0 1 0 0 3.27h22.88a1.634 1.634 0 1 0 0-3.27Z" fill="#fff"/></g><defs><clipPath id="a"><path fill="#fff" d="M0 0h108v112H0z"/></clipPath></defs></svg>