<svg width="27" height="31" viewBox="0 0 27 31" fill="none" xmlns="http://www.w3.org/2000/svg">
<path fill-rule="evenodd" clip-rule="evenodd" d="M20.7588 23.847C24.1007 21.4647 26.2799 17.5568 26.2799 13.14C26.2799 5.88296 20.397 0 13.14 0C5.88296 0 0 5.88296 0 13.14C0 17.4236 2.04982 21.2286 5.22208 23.6274C5.31624 23.832 5.45381 24.0278 5.63922 24.2055C6.81674 25.3341 7.88115 26.2246 8.9573 27.1249C9.83707 27.8609 10.7247 28.6035 11.6884 29.4882C12.5051 30.2378 13.7733 30.2367 14.577 29.4732C15.8288 28.284 17.0242 27.2355 18.1831 26.2191C18.9513 25.5453 19.7034 24.8857 20.4451 24.2085C20.5694 24.0951 20.6736 23.9737 20.7588 23.847Z" fill="#EF4850"/>
</svg>
