<svg width="45" height="52" viewBox="0 0 45 52" fill="none" xmlns="http://www.w3.org/2000/svg">
<path fill-rule="evenodd" clip-rule="evenodd" d="M35.7567 39.8455C41.0384 35.7831 44.4423 29.3996 44.4423 22.2211C44.4423 9.94875 34.4936 0 22.2211 0C9.94875 0 0 9.94875 0 22.2211C0 28.7496 2.81531 34.6204 7.29808 38.6859C7.32909 38.7231 7.36183 38.7597 7.39634 38.7956C10.287 41.8047 12.6994 43.8229 15.1478 45.8713C16.9391 47.3699 18.7496 48.8846 20.7808 50.8152C21.5843 51.579 22.8565 51.5774 23.6509 50.8043C26.1342 48.3874 28.4833 46.3271 30.7497 44.3393C32.4584 42.8407 34.12 41.3833 35.7567 39.8455Z" fill="#EF4850"/>
<path d="M10.4375 18.75H31.5625L21 12.25L10.4375 18.75Z" stroke="white" stroke-width="2" stroke-linecap="round" stroke-linejoin="round"/>
<path d="M13.6875 18.75V26.875" stroke="white" stroke-width="2" stroke-linecap="round" stroke-linejoin="round"/>
<path d="M18.5625 18.75V26.875" stroke="white" stroke-width="2" stroke-linecap="round" stroke-linejoin="round"/>
<path d="M23.4375 18.75V26.875" stroke="white" stroke-width="2" stroke-linecap="round" stroke-linejoin="round"/>
<path d="M28.3125 18.75V26.875" stroke="white" stroke-width="2" stroke-linecap="round" stroke-linejoin="round"/>
<path d="M11.25 26.875H30.75" stroke="white" stroke-width="2" stroke-linecap="round" stroke-linejoin="round"/>
<path d="M9.625 30.125H32.375" stroke="white" stroke-width="2" stroke-linecap="round" stroke-linejoin="round"/>
</svg>
