<svg width="108" height="112" viewBox="0 0 108 112" fill="none" xmlns="http://www.w3.org/2000/svg">
<g clip-path="url(#clip0_111_9748)">
<path d="M50.628 104.244H81.2384C87.5528 104.244 93.6084 101.736 98.0733 97.271C102.538 92.8061 105.047 86.7504 105.047 80.4361C105.047 74.1218 102.538 68.0661 98.0733 63.6012C93.6084 59.1363 87.5528 56.628 81.2384 56.628H26.8199C20.5055 56.628 14.4499 54.1196 9.98496 49.6547C5.52007 45.1899 3.01172 39.1342 3.01172 32.8199C3.01172 26.5055 5.52007 20.4499 9.98496 15.985C14.4499 11.5201 20.5055 9.01172 26.8199 9.01172H50.628" stroke="white" stroke-width="4" stroke-linecap="round" stroke-linejoin="round" stroke-dasharray="8 8"/>
<path d="M19.7488 90.2523C20.3953 90.2523 21.0272 90.0606 21.5648 89.7014C22.1023 89.3422 22.5213 88.8317 22.7687 88.2344C23.0161 87.6372 23.0808 86.9799 22.9547 86.3459C22.8286 85.7118 22.5173 85.1293 22.0601 84.6722C21.603 84.2151 21.0205 83.9037 20.3865 83.7776C19.7524 83.6515 19.0952 83.7162 18.4979 83.9636C17.9006 84.211 17.3901 84.63 17.0309 85.1675C16.6717 85.7051 16.48 86.3371 16.48 86.9836C16.48 87.8505 16.8244 88.6819 17.4374 89.2949C18.0504 89.9079 18.8818 90.2523 19.7488 90.2523ZM18.5884 101.546C18.7403 101.699 18.9211 101.821 19.1202 101.904C19.3194 101.986 19.533 102.029 19.7488 102.029C19.9645 102.029 20.1781 101.986 20.3773 101.904C20.5765 101.821 20.7572 101.699 20.9092 101.546L27.5937 94.8449C29.1463 93.2931 30.2038 91.3157 30.6325 89.1629C31.0611 87.0101 30.8417 84.7785 30.0019 82.7504C29.1622 80.7222 27.7398 78.9887 25.9147 77.7691C24.0897 76.5494 21.9439 75.8984 19.7488 75.8984C17.5537 75.8984 15.4079 76.5494 13.5828 77.7691C11.7577 78.9887 10.3354 80.7222 9.49559 82.7504C8.65583 84.7785 8.43641 87.0101 8.86507 89.1629C9.29373 91.3157 10.3512 93.2931 11.9038 94.8449L18.5884 101.546ZM11.9528 86.2317C12.0645 85.0665 12.435 83.9408 13.0373 82.937C13.6396 81.9333 14.4584 81.0766 15.434 80.4297C16.7157 79.5882 18.2155 79.1398 19.7488 79.1398C21.282 79.1398 22.7818 79.5882 24.0635 80.4297C25.0326 81.0744 25.8468 81.9258 26.4476 82.9228C27.0484 83.9197 27.4207 85.0374 27.5379 86.1954C27.6552 87.3535 27.5143 88.5231 27.1255 89.6202C26.7367 90.7173 26.1096 91.7146 25.2893 92.5404L19.7488 98.0809L14.2083 92.5404C13.387 91.7226 12.7585 90.732 12.3683 89.6407C11.9781 88.5494 11.8362 87.3848 11.9528 86.2317ZM31.1893 105.288H8.3082C7.87473 105.288 7.45903 105.461 7.15252 105.767C6.84602 106.074 6.67383 106.489 6.67383 106.923C6.67383 107.356 6.84602 107.772 7.15252 108.079C7.45903 108.385 7.87473 108.557 8.3082 108.557H31.1893C31.6228 108.557 32.0385 108.385 32.345 108.079C32.6515 107.772 32.8237 107.356 32.8237 106.923C32.8237 106.489 32.6515 106.074 32.345 105.767C32.0385 105.461 31.6228 105.288 31.1893 105.288Z" fill="white"/>
<path d="M80.7663 18.3402C81.4128 18.3402 82.0448 18.1485 82.5824 17.7893C83.1199 17.4301 83.5389 16.9196 83.7863 16.3223C84.0337 15.725 84.0984 15.0678 83.9723 14.4337C83.8461 13.7997 83.5348 13.2172 83.0777 12.7601C82.6206 12.303 82.0381 11.9916 81.404 11.8655C80.77 11.7394 80.1127 11.8041 79.5155 12.0515C78.9182 12.2989 78.4077 12.7179 78.0485 13.2554C77.6893 13.793 77.4976 14.4249 77.4976 15.0714C77.4976 15.9384 77.842 16.7698 78.455 17.3828C79.068 17.9958 79.8994 18.3402 80.7663 18.3402ZM79.6059 29.6337C79.7579 29.7868 79.9386 29.9084 80.1378 29.9914C80.337 30.0744 80.5506 30.1171 80.7663 30.1171C80.9821 30.1171 81.1957 30.0744 81.3949 29.9914C81.594 29.9084 81.7748 29.7868 81.9267 29.6337L88.6113 22.9328C90.1639 21.381 91.2214 19.4036 91.65 17.2508C92.0787 15.098 91.8593 12.8664 91.0195 10.8382C90.1798 8.81013 88.7574 7.07662 86.9323 5.85697C85.1072 4.63732 82.9614 3.98633 80.7663 3.98633C78.5712 3.98633 76.4255 4.63732 74.6004 5.85697C72.7753 7.07662 71.3529 8.81013 70.5132 10.8382C69.6734 12.8664 69.454 15.098 69.8826 17.2508C70.3113 19.4036 71.3688 21.381 72.9214 22.9328L79.6059 29.6337ZM72.9704 14.3196C73.0821 13.1544 73.4526 12.0287 74.0549 11.0249C74.6571 10.0211 75.476 9.16452 76.4516 8.51763C77.7333 7.67609 79.2331 7.22772 80.7663 7.22772C82.2996 7.22772 83.7994 7.67609 85.0811 8.51763C86.0502 9.16231 86.8644 10.0137 87.4652 11.0107C88.0659 12.0076 88.4383 13.1253 88.5555 14.2833C88.6727 15.4414 88.5319 16.611 88.1431 17.7081C87.7542 18.8052 87.1271 19.8025 86.3069 20.6283L80.7663 26.1688L75.2258 20.6283C74.4046 19.8105 73.776 18.8199 73.3859 17.7286C72.9957 16.6373 72.8538 15.4727 72.9704 14.3196ZM92.2069 33.3764H69.3258C68.8923 33.3764 68.4766 33.5486 68.1701 33.8551C67.8636 34.1616 67.6914 34.5773 67.6914 35.0107C67.6914 35.4442 67.8636 35.8599 68.1701 36.1664C68.4766 36.4729 68.8923 36.6451 69.3258 36.6451H92.2069C92.6404 36.6451 93.0561 36.4729 93.3626 36.1664C93.6691 35.8599 93.8413 35.4442 93.8413 35.0107C93.8413 34.5773 93.6691 34.1616 93.3626 33.8551C93.0561 33.5486 92.6404 33.3764 92.2069 33.3764Z" fill="white"/>
</g>
<defs>
<clipPath id="clip0_111_9748">
<rect width="108" height="112" fill="white"/>
</clipPath>
</defs>
</svg>
