<svg width="103" height="110" viewBox="0 0 103 110" fill="none" xmlns="http://www.w3.org/2000/svg"><g clip-path="url(#a)" fill="#fff"><path d="M77.606 41.865h-11.07v38.008c0 .815 0 .816-.795.816h-4.618c-.015-.299-.035-.539-.035-.778 0-8.486-.003-16.971-.008-25.456 0-1.831-.053-3.662-.651-5.42a14.923 14.923 0 0 0-2-3.898c-1.652-2.312-3.954-3.423-6.724-3.547a16.433 16.433 0 0 0-3.744.269c-2.391.45-4.177 1.841-5.47 3.89a13.633 13.633 0 0 0-2.15 7.41v26.715c0 .81 0 .81-.801.81H34.91V41.87c-.283-.02-.505-.049-.726-.049-3.242 0-6.483.01-9.726-.014-.546 0-.708.14-.708.7.016 12.433.02 24.867.012 37.301v.814a3.341 3.341 0 0 1-.432.067c-1.507 0-3.013 0-4.52.01-.361 0-.54-.105-.501-.488.017-.17 0-.343 0-.515V41.88H7.594v37.966c0 .844 0 .846-.828.846H2.198c-.014-.313-.034-.573-.034-.83V42.562c0-.742 0-.742-.75-.743-.382 0-.764 0-1.145-.01a1.326 1.326 0 0 1-.216-.042v-4.142c.229-.012.471-.035.71-.035h99.939c.731 0 .732 0 .732.755v3.466H99.26v38.878h-2.041c-.935 0-1.87-.023-2.804.01-.458.015-.587-.154-.582-.595.02-1.793.008-3.584.008-5.377V41.86c-.267-.017-.472-.041-.676-.041-3.147 0-6.294.011-9.44-.014-.55 0-.705.148-.705.704.016 12.451.02 24.903.013 37.354 0 .825 0 .825-.836.825-1.353 0-2.708-.011-4.062.007-.392 0-.572-.124-.534-.524.017-.189 0-.381 0-.572V41.865h.005ZM50.69 34.244H.863c-.95 0-.851.1-.856-.86-.004-.962.012-1.946-.007-2.918-.007-.37.122-.531.495-.5.17.016.343 0 .514 0h99.426c1.152 0 .99-.106.999 1.015.007.934-.01 1.87 0 2.803.007.343-.114.49-.465.458-.188-.017-.381 0-.572 0l-49.707.002ZM15.746 97.006c.363.229.698.409 1 .634 1.717 1.28 2.433 3.041 2.34 5.128a8.489 8.489 0 0 1-.432 2.403c-.934 2.672-2.998 3.979-5.7 4.099-3.653.163-7.323.098-10.976.152-.565.008-.48-.343-.48-.68V92.494c0-2.116.01-4.233-.01-6.35 0-.446.126-.593.584-.59 3.184.02 6.369-.026 9.552.037 1.085.015 2.163.18 3.204.49 2.494.771 4.021 3.204 3.821 5.854-.189 2.448-.733 3.41-2.903 5.071Zm-6.804 2.181v-.082c-1.01 0-2.02.014-3.03-.008-.395-.008-.537.123-.535.521.013 2.02.013 4.04 0 6.059 0 .363.115.506.497.502 2.02-.019 4.04.007 6.064-.035 1.151-.023 2.155-.465 2.662-1.559a5.834 5.834 0 0 0 .47-1.918c.157-1.843-.832-3.196-2.649-3.45-1.142-.16-2.319-.03-3.48-.03Zm-3.559-6.874v3.03c0 .331.057.528.467.523 1.867-.019 3.736.02 5.607-.024 1.698-.04 2.82-.983 3.15-2.603a5.7 5.7 0 0 0 .072-1.478c-.105-1.636-1.03-2.716-2.664-2.82-2.087-.131-4.185-.093-6.28-.098-.114 0-.324.284-.329.44-.037 1.009-.022 2.02-.023 3.03ZM43.766 105.872h5.377a1.255 1.255 0 0 1-.114.303c-.714.99-1.418 1.988-2.174 2.948-.14.178-.483.276-.732.278-4.5.016-9 .011-13.502.011h-9.855c.14-.291.22-.477.318-.654 4.119-7.562 8.233-15.125 12.342-22.69.197-.362.412-.517.837-.514 2.27.02 4.539.03 6.808 0 .563-.008.659.208.659.698-.011 6.274-.014 12.548-.007 18.822.005.259.025.52.043.798ZM39.9 88.58c-.636 0-1.208.03-1.776-.009-.442-.03-.674.125-.883.52a6509.59 6509.59 0 0 1-8.715 16.388c-.087.163-.163.332-.264.54h11.634L39.9 88.58ZM70.153 98.45H58.26c-.016.253-.045.494-.045.735 0 3.184-.016 6.367.01 9.55 0 .562-.166.719-.71.687a22.388 22.388 0 0 0-2.457 0c-.572.032-.698-.176-.697-.714.016-6.729.02-13.458.01-20.189 0-.819.012-1.64 0-2.459-.006-.364.115-.511.497-.503.916.018 1.831.03 2.746 0 .476-.017.618.135.614.611-.02 2.727-.01 5.452-.007 8.179 0 .229.027.446.043.686h11.9v-8.696c0-.764 0-.765.792-.765.876 0 1.754.011 2.632 0 .349-.007.49.131.47.468v22.579c0 .793 0 .793-.767.794-.819 0-1.64-.029-2.459.01-.52.025-.686-.134-.68-.668.024-3.183.012-6.367.012-9.551l-.011-.754ZM80.37 109.413c2.907-4.187 5.709-8.221 8.54-12.295L80.753 85.56c.843 0 1.519-.009 2.195 0 .816.013 1.755-.202 2.41.133.635.325.984 1.218 1.446 1.87 1.476 2.081 2.945 4.168 4.463 6.308.133-.18.248-.318.343-.467 1.648-2.451 3.301-4.9 4.93-7.363.24-.362.492-.507.927-.493 1 .032 2 .01 3.135.01-.195.308-.305.498-.43.679-2.255 3.28-4.514 6.56-6.776 9.84-.229.335-.236.552 0 .89 2.778 3.918 5.545 7.844 8.3 11.779.115.168.229.343.379.561a1.26 1.26 0 0 1-.299.091c-1.297 0-2.594.023-3.89-.014-.21 0-.477-.208-.611-.396a1463.601 1463.601 0 0 1-6.103-8.64c-.115-.168-.248-.328-.416-.55-.16.229-.29.405-.414.588-1.919 2.844-3.843 5.683-5.746 8.538-.242.362-.499.502-.931.49-1.04-.023-2.084-.002-3.296-.002ZM34.89 22.986h31.615c.012.23.03.43.031.633 0 .971-.033 1.945.014 2.914.027.572-.19.694-.72.687a12494 12494 0 0 0-30.242 0c-.533 0-.734-.122-.711-.695.047-1.15.014-2.312.014-3.539ZM44.275 19.552c0-1.317-.008-2.606.013-3.897 0-.108.174-.255.3-.308.125-.053.3-.02.457-.02h11.306c.801 0 .801 0 .801.821v3.404H44.275ZM55.445 4.225c-.257.014-.425.032-.594.032-2.762 0-5.524-.011-8.287.013-.514 0-.657-.163-.643-.652.03-1.03.02-2.06 0-3.09-.006-.393.143-.534.537-.532 2.822.01 5.642.01 8.459 0 .38 0 .54.1.533.516-.014 1.219-.005 2.436-.005 3.713ZM21.925 23.22l1.915 3.922h-5.418l1.918-3.901c-1.217-.915-1.561-1.675-1.23-2.689a2.138 2.138 0 0 1 1.99-1.455 2.123 2.123 0 0 1 2.01 1.422c.352 1.024.02 1.788-1.184 2.7ZM83.027 27.162H77.59l1.924-3.947c-1.193-.879-1.536-1.68-1.184-2.702a2.13 2.13 0 0 1 2.019-1.41 2.124 2.124 0 0 1 2.011 1.568c.276.98-.114 1.786-1.265 2.549l1.932 3.942ZM4.921 19.14c.989 1.332 1.958 2.624 2.903 3.932a.532.532 0 0 1-.008.491c-.946 1.309-1.913 2.6-2.9 3.933a2.543 2.543 0 0 1-.305-.287c-.893-1.184-1.79-2.366-2.661-3.567-.102-.139-.147-.458-.06-.572.925-1.278 1.883-2.533 2.833-3.793.06-.053.127-.099.198-.136ZM96.513 27.486l-1.687-2.281c-.396-.535-.81-1.059-1.178-1.611-.087-.13-.105-.42-.02-.537.942-1.309 1.912-2.6 2.91-3.942.115.111.225.229.327.352.871 1.16 1.748 2.305 2.595 3.477.115.154.174.493.084.619-.923 1.28-1.887 2.533-2.833 3.793a.95.95 0 0 1-.198.13ZM50.7 12.399l-3.532-4.76h7.072l-3.54 4.76Z"/></g><defs><clipPath id="a"><path fill="#fff" d="M0 0h102.076v109.428H0z"/></clipPath></defs></svg>