<?xml version="1.0" standalone="no"?>
<!DOCTYPE svg PUBLIC "-//W3C//DTD SVG 20010904//EN"
		"http://www.w3.org/TR/2001/REC-SVG-20010904/DTD/svg10.dtd">
<svg version="1.0" xmlns="http://www.w3.org/2000/svg"
     width="700.000000pt" height="700.000000pt" viewBox="0 0 700.000000 700.000000"
     preserveAspectRatio="xMidYMid meet">
	<g transform="translate(0.000000,700.000000) scale(0.100000,-0.100000)"
	   fill="#000000" stroke="none">
		<path d="M1080 6985 c-477 -76 -866 -405 -1014 -857 -70 -212 -66 -64 -66
-2629 0 -1965 2 -2328 15 -2409 75 -494 423 -899 890 -1035 198 -57 80 -55
2594 -55 2563 0 2422 -4 2628 65 198 66 349 160 498 309 201 202 317 433 360
716 22 142 22 4678 0 4820 -73 483 -397 872 -855 1024 -210 70 -62 66 -2641
65 -1893 -1 -2340 -3 -2409 -14z m2580 -1590 l0 -75 -170 0 -170 0 0 75 0 75
170 0 170 0 0 -75z m-52 -203 c-6 -16 -113 -162 -118 -162 -3 0 -23 24 -45 53
-21 28 -49 67 -63 85 l-24 32 127 0 c70 0 125 -4 123 -8z m112 -347 l0 -75
-230 0 -230 0 0 75 0 75 230 0 230 0 0 -75z m-1780 -215 c0 -4 -24 -39 -54
-79 l-54 -72 -43 53 c-75 95 -74 93 -48 130 12 18 38 52 57 76 l34 43 54 -72
c30 -40 54 -75 54 -79z m530 130 c26 -26 26 -77 -1 -106 l-20 -22 30 -61 c17
-33 31 -65 31 -71 0 -6 -37 -10 -95 -10 l-95 0 36 72 c23 46 32 74 25 76 -14
5 -41 55 -41 77 0 9 11 27 25 40 30 31 77 33 105 5z m2140 0 c30 -30 30 -72
-1 -106 -19 -20 -19 -21 11 -87 16 -37 30 -69 30 -72 0 -3 -43 -5 -95 -5 l-95
0 36 72 c30 61 34 73 22 82 -25 18 -39 54 -32 81 13 53 86 73 124 35z m589
-49 c28 -38 51 -74 51 -81 0 -19 -102 -152 -110 -143 -33 38 -100 134 -100
142 0 9 100 151 106 151 1 0 25 -31 53 -69z m-1139 -146 l0 -75 -570 0 -570 0
0 75 0 75 570 0 570 0 0 -75z m1258 -252 l-3 -78 -1827 -3 -1828 -2 0 80 0 80
1830 0 1831 0 -3 -77z m2 -278 l0 -75 -40 0 -40 0 0 -699 0 -699 -82 -4 c-46
-2 -89 -2 -95 0 -10 3 -13 153 -13 703 l0 699 -195 0 -195 0 0 -699 0 -698
-84 -7 c-46 -3 -91 -3 -100 0 -14 6 -16 77 -16 705 l0 699 -200 0 -200 0 0
-700 0 -700 -100 0 -100 0 0 528 c0 574 -1 592 -57 694 -41 76 -89 124 -151
155 -52 25 -67 28 -162 28 -91 -1 -112 -4 -160 -26 -30 -14 -72 -43 -93 -65
-51 -52 -104 -164 -117 -244 -6 -37 -10 -278 -10 -567 l0 -503 -95 0 -95 0 0
700 0 700 -202 -2 -203 -3 -5 -700 -5 -700 -90 0 -90 0 -3 703 -2 702 -195 0
-195 0 0 -700 0 -699 -32 -6 c-18 -3 -62 -5 -98 -3 l-65 3 -3 703 -2 702 -35
0 -35 0 0 75 0 75 1830 0 1830 0 0 -75z m-3157 -1670 c75 -20 102 -38 135 -94
23 -39 27 -57 26 -116 0 -78 -14 -113 -63 -159 l-31 -30 35 -29 c54 -44 75
-94 75 -175 0 -94 -35 -164 -105 -207 l-48 -30 -239 -3 -238 -4 0 431 0 431
198 0 c143 0 214 -4 255 -15z m1071 -1 c3 -9 6 -175 6 -369 l0 -354 94 -3 94
-3 -41 -57 -42 -57 -433 -1 -433 0 12 23 c59 111 444 815 451 825 8 8 50 12
148 12 116 0 139 -2 144 -16z m524 -156 l2 -168 215 0 215 0 2 168 3 167 68 3
67 3 0 -431 0 -430 -70 0 -70 0 0 195 0 195 -215 0 -215 0 0 -195 0 -195 -70
0 -70 0 0 423 c0 233 3 427 7 431 4 4 34 6 68 4 l60 -3 3 -167z m1004 143 c12
-16 61 -84 107 -150 46 -67 87 -118 91 -114 4 4 49 70 99 146 51 76 98 140
105 143 7 3 39 4 70 2 l57 -3 -131 -189 c-71 -104 -130 -196 -130 -204 0 -8
70 -113 155 -233 85 -121 155 -222 155 -224 0 -3 -36 -5 -80 -5 l-79 0 -122
171 c-66 94 -123 168 -126 166 -2 -3 -55 -79 -116 -169 l-112 -163 -68 -3
c-37 -2 -67 0 -67 3 0 3 67 103 150 222 l150 215 -34 47 c-79 109 -256 362
-256 366 0 3 36 5 79 5 75 0 80 -1 103 -29z"/>
		<path d="M1857 2253 c-4 -3 -7 -60 -7 -125 l0 -118 125 0 c143 0 174 10 196
62 16 39 16 107 -1 138 -20 37 -69 50 -193 50 -63 0 -117 -3 -120 -7z"/>
		<path d="M1852 1763 l3 -128 136 0 c123 0 139 2 159 20 50 44 64 127 30 182
-25 42 -67 53 -213 53 l-118 0 3 -127z"/>
		<path d="M2996 2241 c-9 -16 -83 -156 -166 -311 -82 -155 -150 -284 -150 -286
0 -2 95 -4 210 -4 l210 0 0 315 0 315 -45 0 c-39 0 -46 -4 -59 -29z"/>
	</g>
</svg>
