<svg width="93" height="100" viewBox="0 0 93 100" fill="none" xmlns="http://www.w3.org/2000/svg">
<g filter="url(#filter0_d_177_10813)">
<path fill-rule="evenodd" clip-rule="evenodd" d="M59.7567 51.8455C65.0384 47.783 68.4423 41.3996 68.4423 34.2211C68.4423 21.9487 58.4936 12 46.2211 12C33.9487 12 24 21.9487 24 34.2211C24 40.7496 26.8153 46.6204 31.2981 50.6859C31.3291 50.7231 31.3618 50.7597 31.3963 50.7956C34.287 53.8047 36.6994 55.8229 39.1478 57.8713C40.9391 59.3699 42.7496 60.8846 44.7808 62.8152C45.5843 63.579 46.8565 63.5774 47.6509 62.8043C50.1342 60.3874 52.4833 58.3271 54.7497 56.3393C56.4584 54.8407 58.12 53.3833 59.7567 51.8455Z" fill="#EF4850"/>
</g>
<defs>
<filter id="filter0_d_177_10813" x="0" y="0" width="92.4414" height="99.3857" filterUnits="userSpaceOnUse" color-interpolation-filters="sRGB">
<feFlood flood-opacity="0" result="BackgroundImageFix"/>
<feColorMatrix in="SourceAlpha" type="matrix" values="0 0 0 0 0 0 0 0 0 0 0 0 0 0 0 0 0 0 127 0" result="hardAlpha"/>
<feOffset dy="12"/>
<feGaussianBlur stdDeviation="12"/>
<feComposite in2="hardAlpha" operator="out"/>
<feColorMatrix type="matrix" values="0 0 0 0 0.444288 0 0 0 0 0.654167 0 0 0 0 0.465276 0 0 0 0.32 0"/>
<feBlend mode="normal" in2="BackgroundImageFix" result="effect1_dropShadow_177_10813"/>
<feBlend mode="normal" in="SourceGraphic" in2="effect1_dropShadow_177_10813" result="shape"/>
</filter>
</defs>
</svg>
